<?xml version="1.0" encoding="UTF-8" standalone="no"?>
<!-- Created with Inkscape (http://www.inkscape.org/) -->

<svg
   width="201.20352mm"
   height="172.18762mm"
   viewBox="0 0 201.20352 172.18762"
   version="1.1"
   id="svg1"
   xml:space="preserve"
   xmlns="http://www.w3.org/2000/svg"
   xmlns:svg="http://www.w3.org/2000/svg"><defs
     id="defs1" /><g
     id="layer1"
     transform="translate(-5.6561728,-66.37224)"><g
       id="g4"
       style="stroke-width:0.894292;stroke-dasharray:none"
       transform="matrix(5.0914596,0,0,5.0914596,-635.40102,-605.26915)"><path
         style="fill:none;stroke:#9f705d;stroke-width:0.894292;stroke-linecap:round;stroke-linejoin:round;stroke-miterlimit:3.1;stroke-dasharray:none;stroke-opacity:1"
         d="m 132.58345,132.6604 c -0.0807,5.18139 4.00136,5.53625 4.00136,10.61899"
         id="path2" /><path
         style="fill:none;stroke:#9f705d;stroke-width:0.894292;stroke-linecap:round;stroke-linejoin:round;stroke-miterlimit:3.1;stroke-dasharray:none;stroke-opacity:1"
         d="m 138.42361,132.36244 c -0.0807,5.18139 4.00136,5.53625 4.00136,10.61899"
         id="path2-5" /><path
         id="path1"
         style="fill:none;stroke:#9f705d;stroke-width:0.894292;stroke-linecap:round;stroke-linejoin:round;stroke-miterlimit:3.1;stroke-dasharray:none;stroke-opacity:1"
         d="m 130.63027,147.43441 a 15.536269,15.415378 0 0 0 -0.14831,1.95957 l -4.13153,0.0413 c 1.56541,-0.006 2.68939,-0.0132 4.13049,-0.0196 a 15.536269,15.415378 0 0 0 -0.006,0.17363 15.536269,15.415378 0 0 0 7.64915,13.2457 v 2.45205 h 15.38976 v -2.24328 a 15.536269,15.415378 0 0 0 8.03362,-13.45447 15.536269,15.415378 0 0 0 -0.0155,-0.42892 c 3.29376,-0.0635 3.44734,-0.11007 3.44734,-0.11007 h -0.077 l -3.37344,0.0336 a 15.536269,15.415378 0 0 0 -0.13591,-1.64951 z" /><path
         id="path3"
         style="fill:none;stroke:#9f705d;stroke-width:0.894292;stroke-linecap:round;stroke-linejoin:round;stroke-miterlimit:3.1;stroke-dasharray:none;stroke-opacity:1"
         d="m 153.02628,140.43798 a 5.6172905,6.1174603 0 0 0 -5.61723,6.11745 5.6172905,6.1174603 0 0 0 0.0429,0.65371 h 11.14868 a 5.6172905,6.1174603 0 0 0 0.0429,-0.65371 5.6172905,6.1174603 0 0 0 -5.61723,-6.11745 z" /></g></g></svg>
